<?xml version="1.0" encoding="utf-8"?>
<!-- Generator: Adobe Illustrator 17.0.0, SVG Export Plug-In . SVG Version: 6.00 Build 0)  -->
<!DOCTYPE svg PUBLIC "-//W3C//DTD SVG 1.1//EN" "http://www.w3.org/Graphics/SVG/1.1/DTD/svg11.dtd">
<svg version="1.1" id="Layer_1" xmlns="http://www.w3.org/2000/svg" xmlns:xlink="http://www.w3.org/1999/xlink" x="0px" y="0px"
	 width="264.5px" height="87px" viewBox="0 0 264.5 87" style="enable-background:new 0 0 264.5 87;" xml:space="preserve">
<path style="fill:#EB008B;" d="M70.755,41.281c-2.483,0-4.879,0-7.396,0c0-2.527,0-4.952,0-7.435c-3.413,0-6.703,0-10.146,0
	c0,1.427,0.015,2.753-0.005,4.08c-0.016,1.07,0.331,2.596-0.223,3.088c-0.641,0.57-2.091,0.258-3.19,0.281
	c-1.347,0.028-2.696,0.007-4.006,0.007c0,3.505,0,6.825,0,10.225c2.491,0,4.889,0,7.444,0c0,2.531,0,4.984,0,7.424
	c3.449,0,6.738,0,10.136,0c0-2.496,0-4.923,0-7.476c2.529,0,4.95,0,7.386,0C70.755,48.025,70.755,44.705,70.755,41.281z"/>
<ellipse style="fill:#1B75BB;" cx="70.781" cy="66.595" rx="1.385" ry="1.38"/>
<g>
	<path style="fill:#0054A8;" d="M133.38,41.409l4.492-16.47c0.748-3.069,1.576-5.067,2.484-5.992c0.908-0.926,2.163-1.39,3.765-1.39
		c2.189,0,3.672,0.597,4.447,1.792c0.774,1.194,1.482,3.065,2.124,5.613l8.758,33.199l-8.643,0.011l-6.639-24.544l-6.691,24.534
		h-8.358l-6.697-24.555l-6.48,24.565l-8.479-0.01l8.758-33.199c0.744-3.078,1.567-5.082,2.47-6.011
		c0.903-0.928,2.153-1.394,3.748-1.394c2.498,0,4.092,0.77,4.783,2.308c0.69,1.539,1.275,3.236,1.754,5.092L133.38,41.409z"/>
	<path style="fill:#0054A8;" d="M161.202,26.553v-7.961h26.75v7.961h-9.235V58.16h-7.961V26.553H161.202z"/>
	<path style="fill:#0054A8;" d="M189.146,58.16l-0.079-39.568h16.798c5.255,0,9.355,1.964,12.301,5.892
		c2.945,3.928,4.419,8.572,4.419,13.932c0,5.362-1.474,9.992-4.419,13.893c-2.945,3.901-7.046,5.852-12.301,5.852H189.146z
		 M206.74,50.199c2.44,0,4.352-1.167,5.732-3.503c1.38-2.335,2.07-5.095,2.07-8.28c0-3.29-0.677-6.09-2.03-8.399
		c-1.354-2.309-3.278-3.463-5.772-3.463h-9.633v23.646H206.74z"/>
	<path style="fill:#0054A8;" d="M225.688,18.592h7.962v31.607h16.878v7.961h-24.84V18.592z"/>
</g>
<text transform="matrix(1 0 0 1 109.7296 70.0543)" style="fill:#231F20; font-family:'Bahnschrift'; font-size:7.792;">Medical Treatment Distance Learning</text>
<path style="fill:#1B75BB;" d="M101.316,46.321c-0.674-7.507-4.638-12.915-11.094-16.589c-3.764-2.142-7.872-3.241-12.142-3.76
	c-0.663-0.081-1.056-0.3-1.362-0.912c-1.637-3.273-3.842-6.12-6.717-8.394c-6.532-5.167-13.845-6.828-21.804-4.194
	c-7.292,2.413-11.987,7.487-14.87,14.215c-3.53,0.525-6.837,1.97-9.898,4.244c-6.01,4.465-9.24,10.477-9.563,17.983
	c-0.248,5.76,1.403,10.961,5.013,15.445c5.383,6.684,12.711,9.288,21.018,9.637c4.664,0.196,9.241-0.466,13.764-1.584
	c2.562-0.633,4.105-2.861,3.567-5.274c-0.564-2.531-2.936-3.966-5.571-3.378c-1.185,0.264-2.366,0.551-3.562,0.756
	c-5.106,0.874-10.179,0.992-15.165-0.726c-7.961-2.743-12.023-10.864-9.411-18.708c2.261-6.788,10.399-12.124,18.257-8.483
	c-1.182-1.674-1.751-3.747-1.446-5.888c0.026-0.183,0.06-0.363,0.098-0.542c0.963-2.302,2.247-4.396,3.988-6.235
	c5.236-5.531,13.893-6.258,19.969-1.653c2.868,2.174,4.861,5.003,6.177,8.317c0.769,1.937,2.122,2.888,4.205,3.013
	c0.651,0.039,1.297,0.097,1.94,0.166c0.731-0.088,1.471-0.149,2.228-0.149c9.63,0,17.438,7.387,17.438,16.5
	c0,9.113-7.807,16.5-17.438,16.5c-0.455,0-0.902-0.032-1.348-0.064c-0.348,1.335-0.999,2.552-1.886,3.569
	c2.64,0.489,5.325,0.474,8.06-0.207c5.841-1.455,10.499-4.678,13.861-9.689C100.446,56.029,101.769,51.365,101.316,46.321z"/>
<circle style="fill:none;stroke:#1B75BB;stroke-width:1.5;stroke-miterlimit:10;" cx="71.031" cy="66.714" r="6.208"/>
</svg>
